{
  "accessors": [
    {
      "bufferView": 2,
      "componentType": 5126,
      "count": 7766,
      "max": [
        -1.7553999423980713,
        6.497499942779541,
        1.9293999671936035
      ],
      "min": [
        -5.339799880981445,
        -40.96310043334961,
        -9.710200309753418
      ],
      "type": "VEC3"
    },
    {
      "bufferView": 2,
      "byteOffset": 93192,
      "componentType": 5126,
      "count": 7766,
      "max": [
        1.0,
        0.9999982118606567,
        1.0
      ],
      "min": [
        -1.0,
        -1.0,
        -1.0
      ],
      "type": "VEC3"
    },
    {
      "bufferView": 1,
      "componentType": 5126,
      "count": 7766,
      "max": [
        0.9930999875068665,
        0.9919000267982483
      ],
      "min": [
        0.0019000000320374966,
        0.0027000000700354576
      ],
      "type": "VEC2"
    },
    {
      "bufferView": 0,
      "componentType": 5125,
      "count": 18948,
      "type": "SCALAR"
    },
    {
      "bufferView": 2,
      "byteOffset": 186384,
      "componentType": 5126,
      "count": 6977,
      "max": [
        -1.7553999423980713,
        6.496300220489502,
        1.916700005531311
      ],
      "min": [
        -5.331699848175049,
        -32.6593017578125,
        -9.769800186157227
      ],
      "type": "VEC3"
    },
    {
      "bufferView": 2,
      "byteOffset": 270108,
      "componentType": 5126,
      "count": 6977,
      "max": [
        1.0,
        1.0,
        1.0
      ],
      "min": [
        -1.0,
        -1.0,
        -1.0
      ],
      "type": "VEC3"
    },
    {
      "bufferView": 1,
      "byteOffset": 62128,
      "componentType": 5126,
      "count": 6977,
      "max": [
        0.9945999979972839,
        0.9919999837875366
      ],
      "min": [
        0.0038999998942017555,
        0.004900000058114529
      ],
      "type": "VEC2"
    },
    {
      "bufferView": 0,
      "byteOffset": 75792,
      "componentType": 5125,
      "count": 19497,
      "type": "SCALAR"
    },
    {
      "bufferView": 2,
      "byteOffset": 353832,
      "componentType": 5126,
      "count": 8969,
      "max": [
        -1.7553999423980713,
        6.497300148010254,
        1.934499979019165
      ],
      "min": [
        -5.336599826812744,
        -32.6593017578125,
        -9.769800186157227
      ],
      "type": "VEC3"
    },
    {
      "bufferView": 2,
      "byteOffset": 461460,
      "componentType": 5126,
      "count": 8969,
      "max": [
        1.0,
        1.0,
        1.0
      ],
      "min": [
        -1.0,
        -1.0,
        -1.0
      ],
      "type": "VEC3"
    },
    {
      "bufferView": 1,
      "byteOffset": 117944,
      "componentType": 5126,
      "count": 8969,
      "max": [
        2.466399908065796,
        0.9918000102043152
      ],
      "min": [
        0.003800000064074993,
        -0.7261000275611877
      ],
      "type": "VEC2"
    },
    {
      "bufferView": 0,
      "byteOffset": 153780,
      "componentType": 5125,
      "count": 23805,
      "type": "SCALAR"
    },
    {
      "bufferView": 2,
      "byteOffset": 569088,
      "componentType": 5126,
      "count": 2865,
      "max": [
        -2.246299982070923,
        6.497300148010254,
        1.936400055885315
      ],
      "min": [
        -5.339799880981445,
        -32.19850158691406,
        -9.649299621582031
      ],
      "type": "VEC3"
    },
    {
      "bufferView": 2,
      "byteOffset": 603468,
      "componentType": 5126,
      "count": 2865,
      "max": [
        0.9999974966049194,
        0.999992847442627,
        0.9998175501823425
      ],
      "min": [
        -0.9999890327453613,
        -0.9999954700469971,
        -0.9995995163917542
      ],
      "type": "VEC3"
    },
    {
      "bufferView": 1,
      "byteOffset": 189696,
      "componentType": 5126,
      "count": 2865,
      "max": [
        0.9925000071525574,
        0.9882000088691711
      ],
      "min": [
        0.0,
        0.0
      ],
      "type": "VEC2"
    },
    {
      "bufferView": 0,
      "byteOffset": 249000,
      "componentType": 5125,
      "count": 8850,
      "type": "SCALAR"
    }
  ],
  "asset": {
    "extras": {
      "author": "kosear (https://sketchfab.com/kosear)",
      "license": "CC-BY-4.0 (http://creativecommons.org/licenses/by/4.0/)",
      "source": "https://sketchfab.com/3d-models/m4a1-s-dream-catcher-0f2d96978b904a4995d521a1e5edb711",
      "title": "M4A1-S | Dream Catcher"
    },
    "generator": "Sketchfab-12.66.0",
    "version": "2.0"
  },
  "bufferViews": [
    {
      "buffer": 0,
      "byteLength": 284400,
      "name": "floatBufferViews",
      "target": 34963
    },
    {
      "buffer": 0,
      "byteLength": 212616,
      "byteOffset": 284400,
      "byteStride": 8,
      "name": "floatBufferViews",
      "target": 34962
    },
    {
      "buffer": 0,
      "byteLength": 637848,
      "byteOffset": 497016,
      "byteStride": 12,
      "name": "floatBufferViews",
      "target": 34962
    }
  ],
  "buffers": [
    {
      "byteLength": 1134864,
      "uri": "scene.bin"
    }
  ],
  "images": [
    {
      "uri": "textures/material_0_baseColor.png"
    }
  ],
  "materials": [
    {
      "doubleSided": true,
      "name": "material_0",
      "pbrMetallicRoughness": {
        "baseColorTexture": {
          "index": 0
        },
        "metallicFactor": 0.09291264615216242,
        "roughnessFactor": 0.7434911746286534
      }
    }
  ],
  "meshes": [
    {
      "name": "Object_0",
      "primitives": [
        {
          "attributes": {
            "NORMAL": 1,
            "POSITION": 0,
            "TEXCOORD_0": 2
          },
          "indices": 3,
          "material": 0,
          "mode": 4
        }
      ]
    },
    {
      "name": "Object_1",
      "primitives": [
        {
          "attributes": {
            "NORMAL": 5,
            "POSITION": 4,
            "TEXCOORD_0": 6
          },
          "indices": 7,
          "material": 0,
          "mode": 4
        }
      ]
    },
    {
      "name": "Object_2",
      "primitives": [
        {
          "attributes": {
            "NORMAL": 9,
            "POSITION": 8,
            "TEXCOORD_0": 10
          },
          "indices": 11,
          "material": 0,
          "mode": 4
        }
      ]
    },
    {
      "name": "Object_3",
      "primitives": [
        {
          "attributes": {
            "NORMAL": 13,
            "POSITION": 12,
            "TEXCOORD_0": 14
          },
          "indices": 15,
          "material": 0,
          "mode": 4
        }
      ]
    }
  ],
  "nodes": [
    {
      "children": [
        1
      ],
      "matrix": [
        1.0,
        0.0,
        0.0,
        0.0,
        0.0,
        2.220446049250313e-16,
        -1.0,
        0.0,
        0.0,
        1.0,
        2.220446049250313e-16,
        0.0,
        0.0,
        0.0,
        0.0,
        1.0
      ],
      "name": "Sketchfab_model"
    },
    {
      "children": [
        2,
        3,
        4,
        5
      ],
      "name": "m4a1_s.obj.cleaner.materialmerger.gles"
    },
    {
      "mesh": 0,
      "name": "Object_2"
    },
    {
      "mesh": 1,
      "name": "Object_3"
    },
    {
      "mesh": 2,
      "name": "Object_4"
    },
    {
      "mesh": 3,
      "name": "Object_5"
    }
  ],
  "samplers": [
    {
      "magFilter": 9729,
      "minFilter": 9987,
      "wrapS": 10497,
      "wrapT": 10497
    }
  ],
  "scene": 0,
  "scenes": [
    {
      "name": "Sketchfab_Scene",
      "nodes": [
        0
      ]
    }
  ],
  "textures": [
    {
      "sampler": 0,
      "source": 0
    }
  ]
}
