{
  "accessors": [
    {
      "bufferView": 2,
      "componentType": 5126,
      "count": 20937,
      "max": [
        1.710800051689148,
        12.72920036315918,
        43.566200256347656
      ],
      "min": [
        -2.8441998958587646,
        2.6270999908447266,
        -10.237700462341309
      ],
      "type": "VEC3"
    },
    {
      "bufferView": 2,
      "byteOffset": 251244,
      "componentType": 5126,
      "count": 20937,
      "max": [
        1.0,
        1.0,
        1.0
      ],
      "min": [
        -1.0,
        -1.0,
        -1.0
      ],
      "type": "VEC3"
    },
    {
      "bufferView": 1,
      "componentType": 5126,
      "count": 20937,
      "max": [
        1.001099944114685,
        1.000599980354309
      ],
      "min": [
        -0.0007999999797903001,
        0.0006000000284984708
      ],
      "type": "VEC2"
    },
    {
      "bufferView": 0,
      "componentType": 5125,
      "count": 65748,
      "type": "SCALAR"
    },
    {
      "bufferView": 2,
      "byteOffset": 502488,
      "componentType": 5126,
      "count": 1216,
      "max": [
        1.000000238418579,
        11.566478729248047,
        1.0
      ],
      "min": [
        -0.9999998211860657,
        -0.04709649085998535,
        -1.0
      ],
      "type": "VEC3"
    },
    {
      "bufferView": 2,
      "byteOffset": 517080,
      "componentType": 5126,
      "count": 1216,
      "max": [
        0.9904382824897766,
        1.0,
        0.9951398372650146
      ],
      "min": [
        -0.9904382824897766,
        -1.0,
        -0.9951399564743042
      ],
      "type": "VEC3"
    },
    {
      "bufferView": 1,
      "byteOffset": 167496,
      "componentType": 5126,
      "count": 1216,
      "max": [
        1.000000238418579,
        1.0
      ],
      "min": [
        0.0,
        0.0
      ],
      "type": "VEC2"
    },
    {
      "bufferView": 0,
      "byteOffset": 262992,
      "componentType": 5125,
      "count": 1992,
      "type": "SCALAR"
    }
  ],
  "asset": {
    "extras": {
      "author": "WoodenManufacturing (https://sketchfab.com/WoodenManufacturing)",
      "license": "CC-BY-4.0 (http://creativecommons.org/licenses/by/4.0/)",
      "source": "https://sketchfab.com/3d-models/csgo-awp-dragon-lore-013c3a1d945a4336a87f889c3d4c25b1",
      "title": "CSGO AWP DRAGON LORE"
    },
    "generator": "Sketchfab-12.67.0",
    "version": "2.0"
  },
  "bufferViews": [
    {
      "buffer": 0,
      "byteLength": 270960,
      "name": "floatBufferViews",
      "target": 34963
    },
    {
      "buffer": 0,
      "byteLength": 177224,
      "byteOffset": 270960,
      "byteStride": 8,
      "name": "floatBufferViews",
      "target": 34962
    },
    {
      "buffer": 0,
      "byteLength": 531672,
      "byteOffset": 448184,
      "byteStride": 12,
      "name": "floatBufferViews",
      "target": 34962
    }
  ],
  "buffers": [
    {
      "byteLength": 979856,
      "uri": "scene.bin"
    }
  ],
  "images": [
    {
      "uri": "textures/Default_OBJ.001_baseColor.png"
    },
    {
      "uri": "textures/Material.001_baseColor.png"
    }
  ],
  "materials": [
    {
      "doubleSided": true,
      "name": "Default_OBJ.001",
      "pbrMetallicRoughness": {
        "baseColorTexture": {
          "index": 0
        },
        "metallicFactor": 0.0,
        "roughnessFactor": 0.8211145618000169
      }
    },
    {
      "doubleSided": true,
      "name": "Material.001",
      "pbrMetallicRoughness": {
        "baseColorTexture": {
          "index": 1
        },
        "metallicFactor": 0.0,
        "roughnessFactor": 0.8211145618000169
      }
    }
  ],
  "meshes": [
    {
      "name": "awp_Default OBJ.001_0",
      "primitives": [
        {
          "attributes": {
            "NORMAL": 1,
            "POSITION": 0,
            "TEXCOORD_0": 2
          },
          "indices": 3,
          "material": 0,
          "mode": 4
        }
      ]
    },
    {
      "name": "Sphere_Material.001_0",
      "primitives": [
        {
          "attributes": {
            "NORMAL": 5,
            "POSITION": 4,
            "TEXCOORD_0": 6
          },
          "indices": 7,
          "material": 1,
          "mode": 4
        }
      ]
    }
  ],
  "nodes": [
    {
      "children": [
        1
      ],
      "matrix": [
        1.0,
        0.0,
        0.0,
        0.0,
        0.0,
        2.220446049250313e-16,
        -1.0,
        0.0,
        0.0,
        1.0,
        2.220446049250313e-16,
        0.0,
        0.0,
        0.0,
        0.0,
        1.0
      ],
      "name": "Sketchfab_model"
    },
    {
      "children": [
        2
      ],
      "matrix": [
        1.0,
        0.0,
        0.0,
        0.0,
        0.0,
        0.0,
        1.0,
        0.0,
        0.0,
        -1.0,
        0.0,
        0.0,
        0.0,
        0.0,
        0.0,
        1.0
      ],
      "name": "DRAGONLORE.fbx"
    },
    {
      "children": [
        3,
        5
      ],
      "name": "RootNode"
    },
    {
      "children": [
        4
      ],
      "matrix": [
        100.0,
        0.0,
        0.0,
        0.0,
        0.0,
        99.99999999999866,
        1.6292067073209114e-05,
        0.0,
        0.0,
        -1.6292067073209114e-05,
        99.99999999999866,
        0.0,
        0.0,
        0.0,
        0.0,
        1.0
      ],
      "name": "awp"
    },
    {
      "mesh": 0,
      "name": "awp_Default OBJ.001_0"
    },
    {
      "children": [
        6
      ],
      "matrix": [
        114.06143951416016,
        0.0,
        0.0,
        0.0,
        0.0,
        -1.858296721805726e-05,
        -114.06143951415865,
        0.0,
        0.0,
        114.06143951415865,
        -1.858296721805726e-05,
        0.0,
        0.0721082091331482,
        1113.159423828125,
        1525.4815673828125,
        1.0
      ],
      "name": "Sphere"
    },
    {
      "mesh": 1,
      "name": "Sphere_Material.001_0"
    }
  ],
  "samplers": [
    {
      "magFilter": 9729,
      "minFilter": 9987,
      "wrapS": 10497,
      "wrapT": 10497
    }
  ],
  "scene": 0,
  "scenes": [
    {
      "name": "Sketchfab_Scene",
      "nodes": [
        0
      ]
    }
  ],
  "textures": [
    {
      "sampler": 0,
      "source": 0
    },
    {
      "sampler": 0,
      "source": 1
    }
  ]
}
